<svg xmlns="http://www.w3.org/2000/svg" width="65" height="65" viewBox="0 0 65 65">
    <defs>
        <linearGradient id="a" x1="-2.256%" x2="195.318%" y1="50%" y2="50%">
            <stop offset="0%" stop-color="#ED6D00"/>
            <stop offset="100%" stop-color="#F8E988"/>
        </linearGradient>
    </defs>
    <g fill="none" fill-rule="evenodd">
        <g fill="gray" fill-rule="nonzero">
            <path d="M28 45.584c-4.006-1.474-8.052-3.378-9.349-4.002-.448 1.1-1.489 1.884-2.711 1.884h-6.2a.993.993 0 0 1-.99-.997V26.507a.989.989 0 0 1 1.183-.978l8.06 1.625a2.971 2.971 0 0 1 2.265 2.113c1.127-.313 3.124-.765 5.315-.765 1.913 0 3.351.7 4.874 1.44 1.235.601 2.513 1.222 4.23 1.573 3.76.77 7.398 1.783 7.668 4.646 2.03-.588 6.035-1.673 7.968-1.673 3.496 0 5.937 1.64 5.937 3.99a1 1 0 0 1-.591.914c-.731.323-1.858.882-3.22 1.557-2.456 1.217-5.502 2.726-8.439 3.985V42.76c2.699-1.19 5.449-2.553 7.565-3.602.997-.493 1.869-.925 2.559-1.253-.499-.928-2.198-1.422-3.811-1.422-1.908 0-6.866 1.409-8.615 1.951-.062.02-.124.012-.186.02-.06.052-.108.113-.173.162-.764.576-1.945.865-3.555.865-2.47 0-5.955-.68-10.514-2.041a1 1 0 0 1-.667-1.24.99.99 0 0 1 1.231-.674c9.235 2.763 11.693 1.966 12.322 1.492.187-.141.26-.291.26-.535 0-1.232-1.834-2.133-6.134-3.012-1.958-.401-3.411-1.108-4.693-1.731-1.428-.694-2.555-1.242-4.016-1.242-2.417 0-4.62.627-5.341.854l-1.165 8.221.012.003c1.81.888 5.422 2.545 8.921 3.875v2.133zM18.39 30.23a.997.997 0 0 0-.784-1.12l-6.877-1.386v13.747h5.21c.49 0 .911-.368.98-.856l1.472-10.385zM39.427 29.5c2.685 0 5.092-1.594 6.227-4.02 3.682-.157 6.638-3.203 6.638-6.953 0-3.85-3.108-6.984-6.927-6.984-2.766 0-5.14 1.654-6.25 4.023-3.672.168-6.615 3.209-6.615 6.95 0 3.851 3.108 6.984 6.927 6.984zm5.938-15.961c2.729 0 4.947 2.237 4.947 4.988 0 2.75-2.218 4.988-4.947 4.988-2.73 0-4.948-2.238-4.948-4.988 0-2.75 2.218-4.988 4.948-4.988zm-6.838 4.095c-.038.295-.09.587-.09.893 0 .508.061 1 .164 1.478a.976.976 0 0 0-.164.517v3.99c0 .552.443.998.99.998.547 0 .99-.446.99-.998v-1.114a6.9 6.9 0 0 0 3.118 1.833c-.897 1.39-2.427 2.274-4.108 2.274-2.729 0-4.948-2.238-4.948-4.988a4.965 4.965 0 0 1 4.048-4.883z"/>
            <path d="M45.365 21.52c.547 0 .99-.447.99-.998v-3.99a.993.993 0 0 0-.99-.998.993.993 0 0 0-.99.997v3.99c0 .552.443.998.99.998z"/>
        </g>
        <path fill="url(#a)" d="M24.025 29.425h3.395l4.205 5.953-4.205 6.397h-3.395L28.39 35.6l-1.828-2.586z" transform="matrix(0 1 1 0 .225 18.775)"/>
    </g>
</svg>
